<svg xmlns="http://www.w3.org/2000/svg" viewBox="0 0 846 328"><path d="M301.944 10.113c-22.327 1.081-49.071 5.903-72.341 13.043-15.792 4.846-22.158 7.723-45.867 20.734-38.758 21.269-55.076 24.22-83.29 15.064-21.538-6.99-33.854-14.702-53.028-33.204C41.291 19.838 35.99 15 35.639 15c-3.909 0 11.989 16.097 26.96 27.298 20.812 15.573 46.843 24.634 67.212 23.398 17.206-1.044 27.767-4.822 54.248-19.402 28.756-15.833 41.821-21.035 66.97-26.661 29.887-6.686 65.618-9.536 84.557-6.744 14.394 2.122 52.184 16.864 79.914 31.176 33.526 17.303 38.916 19.168 67.5 23.35 50.311 7.36 70.606 3.878 95.373-16.368 10.576-8.645 13.767-10.271 28.389-14.472 14.324-4.114 49.675-12.006 61.118-13.644 20.268-2.901 41.852 4.171 73.62 24.123 22.157 13.915 38.08 21.096 60 27.06 20.05 5.456 35.703 9.017 36.431 8.288.987-.987-1.867-2.148-9.431-3.837-40.222-8.977-57.661-15.802-86.414-33.817-15.287-9.579-24.398-14.157-40.586-20.395-17.321-6.674-29.314-5.849-75 5.161-32.498 7.831-37.307 9.712-48.5 18.974-12.799 10.59-25.099 16.785-39.081 19.685-13.236 2.745-69.315-3.525-87.911-9.829-4.129-1.399-14.033-5.952-22.008-10.116-22.286-11.638-49.781-23.895-68-30.314-21.914-7.72-32.326-9.096-59.056-7.801m22.848 131.415c-29.101 3.175-68.129 12.52-106.292 25.451-52.887 17.92-98.541 29.602-120 30.706-35.726 1.837-64.781-13.727-79.44-42.554-1.555-3.057-2.538-4.053-3.274-3.317-.736.736-.069 2.799 2.223 6.869 15.431 27.4 41.108 41.297 76.564 41.436 19.949.079 68.246-11.989 125.927-31.464 55.445-18.72 115.357-29.846 138.768-25.769 19.338 3.368 34.09 11.867 54.122 31.184 24.388 23.516 39.982 33.281 59.889 37.5 24.31 5.153 47.634 6.952 63.379 4.888 17.82-2.336 23.282-4.668 66.342-28.332 29.631-16.285 38.213-18.836 59.971-17.828 14.482.67 23.613 2.811 47.029 11.025 8.525 2.99 23.6 7.328 33.5 9.64 9.9 2.311 27.109 6.612 38.241 9.557 26.904 7.116 54.259 11.256 54.259 8.212 0-1.104-2.336-1.571-10.293-2.058-12.488-.764-24.4-3.09-44.106-8.611-8.194-2.296-24.394-6.357-36-9.025-11.605-2.669-27.401-7.103-35.101-9.856-32.158-11.494-49.485-13.795-72.207-9.586-6.773 1.254-18.762 6.933-46.329 21.942-38.8 21.126-42.229 22.329-65.964 23.155-12.602.439-18.398.136-31-1.617-36.326-5.055-51.128-12.43-78.5-39.111-31.132-30.345-49.932-36.995-91.708-32.437m10.319 109.964c-3.514.791-10.714 2.765-16 4.385-5.286 1.62-14.731 4.377-20.988 6.128-11.853 3.316-15.464 4.719-38.623 15.01-32.278 14.344-58.669 22.678-87 27.477-32.479 5.5-90.925.841-112.086-8.936-10.101-4.667-33.276-18.647-42.637-25.721C9.465 263.555 9 263.316 9 265.319c0 2.702 27.123 20.678 44.146 29.258 20.415 10.289 45.321 14.397 87.354 14.407 37.495.009 73.062-9.068 123.542-31.529 18.271-8.13 23.559-9.991 53.672-18.889 20.167-5.958 26.28-6.924 40.197-6.348 15.054.624 18.986 2.523 34.611 16.719 19.746 17.941 33.612 27.652 45.002 31.52 12.711 4.315 39.814 4.376 59.476.133 28.789-6.211 36.358-7.762 56.267-11.524 57.022-10.774 83.761-14.442 105.777-14.511l17.543-.055 7.457 3.692c4.101 2.03 11.281 6.227 15.956 9.326 13.914 9.224 19.292 11.016 42 13.996 6.875.902 18.575 2.984 26 4.626 26.553 5.873 62.626 12.86 66.4 12.86 3.168 0 1.518-1.922-2.15-2.504-5.945-.943-48.146-9.229-66.19-12.996-9.043-1.887-20.329-3.866-25.081-4.396-17.848-1.993-25.747-4.553-37.637-12.2-14.273-9.178-23.504-13.672-30.842-15.014-16.465-3.012-93.836 8.538-171.222 25.56-19.614 4.314-29.953 5.145-45.813 3.684-21.186-1.952-30.961-7.042-55.965-29.139-22.937-20.271-25.225-21.401-43.962-21.711-9.383-.155-16.157.246-20.427 1.208" fill-rule="evenodd"/></svg>